<?xml version="1.0" encoding="UTF-8"?>
<!DOCTYPE svg PUBLIC "-//W3C//DTD SVG 1.1//EN" "http://www.w3.org/Graphics/SVG/1.1/DTD/svg11.dtd">
<svg xmlns="http://www.w3.org/2000/svg" version="1.1"
     width="812px"
     height="812px"
     style="shape-rendering:geometricPrecision; text-rendering:geometricPrecision; image-rendering:optimizeQuality; fill-rule:evenodd; clip-rule:evenodd" xmlns:xlink="http://www.w3.org/1999/xlink">
<g><path style="opacity:0.992" fill="#3bbe60" d="M 111.5,20.5 C 157.827,16.9668 193.327,34.6334 218,73.5C 238.501,114.676 235.501,154.01 209,191.5C 178.26,226.632 140.093,238.465 94.5,227C 47.6314,209.604 22.6314,175.938 19.5,126C 20.9313,85.7843 38.5979,55.1177 72.5,34C 84.8944,27.37 97.8944,22.87 111.5,20.5 Z"/></g>
<g><path style="opacity:0.993" fill="#426ffe" d="M 370.5,20.5 C 416.643,16.6572 452.143,33.9905 477,72.5C 491.882,101.04 494.549,130.707 485,161.5C 464.351,210.089 427.518,233.256 374.5,231C 341.113,223.184 311.113,229.851 284.5,251C 273.333,262.167 262.167,273.333 251,284.5C 232.809,306.582 225.476,331.915 229,360.5C 237.455,407.059 222.955,444.559 185.5,473C 152.692,492.915 118.359,495.915 82.5,482C 35.0103,457.193 14.8437,418.027 22,364.5C 30.4228,326.74 52.5894,300.573 88.5,286C 104.066,280.554 120.066,278.554 136.5,280C 169.887,287.816 199.887,281.149 226.5,260C 237.667,248.833 248.833,237.667 260,226.5C 281.149,199.887 287.816,169.887 280,136.5C 277.743,83.485 300.91,46.6516 349.5,26C 356.514,23.705 363.514,21.8716 370.5,20.5 Z"/></g>
<g><path style="opacity:1" fill="#eaeef0" d="M 165.5,135.5 C 155.5,135.5 145.5,135.5 135.5,135.5C 135.5,145.5 135.5,155.5 135.5,165.5C 133.901,173.141 129.234,175.974 121.5,174C 118.619,172.749 116.786,170.583 116,167.5C 115.5,156.839 115.333,146.172 115.5,135.5C 104.495,135.667 93.495,135.5 82.5,135C 74.2327,128.256 74.566,121.922 83.5,116C 94.1615,115.5 104.828,115.333 115.5,115.5C 115.333,104.828 115.5,94.1615 116,83.5C 121.922,74.566 128.256,74.2327 135,82.5C 135.5,93.495 135.667,104.495 135.5,115.5C 145.839,115.334 156.172,115.5 166.5,116C 173.224,118.076 175.724,122.576 174,129.5C 172.395,133.276 169.562,135.276 165.5,135.5 Z"/></g>
<g><path style="opacity:1" fill="#eaedf3" d="M 353.5,88.5 C 356.978,88.1842 360.312,88.6842 363.5,90C 370.667,97.1667 377.833,104.333 385,111.5C 392.53,103.635 400.364,96.1355 408.5,89C 421.445,88.2677 425.278,93.7677 420,105.5C 413.167,112.333 406.333,119.167 399.5,126C 406.667,133.167 413.833,140.333 421,147.5C 424.397,159.769 419.897,164.602 407.5,162C 400.319,154.652 392.986,147.485 385.5,140.5C 378.348,147.152 371.348,153.985 364.5,161C 355.697,165.599 350.031,163.099 347.5,153.5C 347.763,150.972 348.596,148.639 350,146.5C 357.015,139.652 363.848,132.652 370.5,125.5C 363.515,118.014 356.348,110.681 349,103.5C 346.064,97.0578 347.564,92.0578 353.5,88.5 Z"/></g>
<g><path style="opacity:1" fill="#6acb87" d="M 165.5,135.5 C 156.014,136.494 146.348,136.827 136.5,136.5C 136.827,146.348 136.494,156.014 135.5,165.5C 135.5,155.5 135.5,145.5 135.5,135.5C 145.5,135.5 155.5,135.5 165.5,135.5 Z"/></g>
<g><path style="opacity:0.994" fill="#eb7c20" d="M 373.5,279.5 C 428.426,277.359 465.926,301.692 486,352.5C 498.279,398.312 486.779,436.812 451.5,468C 422.924,489.182 391.257,495.515 356.5,487C 303.558,468.311 278.058,430.811 280,374.5C 288.895,320.773 320.062,289.106 373.5,279.5 Z"/></g>
<g><path style="opacity:1" fill="#edebef" d="M 343.5,347.5 C 371.169,347.333 398.835,347.5 426.5,348C 434.701,351.373 436.535,356.873 432,364.5C 431.097,365.701 429.931,366.535 428.5,367C 399.5,367.667 370.5,367.667 341.5,367C 334.327,359.566 334.993,353.066 343.5,347.5 Z"/></g>
<g><path style="opacity:1" fill="#eaecf3" d="M 82.5,375.5 C 111.169,375.333 139.835,375.5 168.5,376C 175.203,380.615 176.203,386.281 171.5,393C 170.167,393.667 168.833,394.333 167.5,395C 139.5,395.667 111.5,395.667 83.5,395C 74.635,388.869 74.3016,382.369 82.5,375.5 Z"/></g>
<g><path style="opacity:1" fill="#ededf1" d="M 343.5,402.5 C 371.169,402.333 398.835,402.5 426.5,403C 433.72,405.604 435.886,410.437 433,417.5C 431.773,419.726 429.939,421.226 427.5,422C 399.167,422.667 370.833,422.667 342.5,422C 336.458,418.252 334.958,413.085 338,406.5C 339.812,405.023 341.645,403.69 343.5,402.5 Z"/></g>
</svg>
